<mxfile host="app.diagrams.net" modified="2023-06-19T07:08:23.498Z" agent="Mozilla/5.0 (Windows NT 10.0; Win64; x64) AppleWebKit/537.36 (KHTML, like Gecko) Chrome/113.0.0.0 Safari/537.36" etag="B_iEDya33jffrneKzFWT" version="21.5.0" type="github" pages="2">
  <diagram id="C5RBs43oDa-KdzZeNtuy" name="Page-1">
    <mxGraphModel dx="3058" dy="2344" grid="1" gridSize="10" guides="1" tooltips="1" connect="1" arrows="1" fold="1" page="1" pageScale="1" pageWidth="827" pageHeight="1169" math="0" shadow="0">
      <root>
        <mxCell id="WIyWlLk6GJQsqaUBKTNV-0" />
        <mxCell id="WIyWlLk6GJQsqaUBKTNV-1" parent="WIyWlLk6GJQsqaUBKTNV-0" />
        <mxCell id="SANk8vCNk3iayb4HGiDt-142" value="" style="endArrow=classic;html=1;rounded=0;exitX=0.5;exitY=0;exitDx=0;exitDy=0;" edge="1" parent="WIyWlLk6GJQsqaUBKTNV-1" source="SANk8vCNk3iayb4HGiDt-98">
          <mxGeometry width="50" height="50" relative="1" as="geometry">
            <mxPoint x="540" y="770" as="sourcePoint" />
            <mxPoint x="540" y="940" as="targetPoint" />
          </mxGeometry>
        </mxCell>
        <mxCell id="SANk8vCNk3iayb4HGiDt-135" value="" style="rounded=0;whiteSpace=wrap;html=1;fillColor=#fff2cc;strokeColor=#d6b656;" vertex="1" parent="WIyWlLk6GJQsqaUBKTNV-1">
          <mxGeometry x="670" y="520" width="460" height="510" as="geometry" />
        </mxCell>
        <mxCell id="lbJgs46rWBDAF7mIoBqf-0" value="&amp;nbsp; &amp;nbsp; PI&amp;nbsp; &amp;nbsp;&amp;nbsp;" style="text;strokeColor=none;fillColor=none;html=1;fontSize=40;fontStyle=1;verticalAlign=middle;align=center;labelBackgroundColor=#ffffff;labelBorderColor=none;" vertex="1" parent="WIyWlLk6GJQsqaUBKTNV-1">
          <mxGeometry x="520" y="30" width="100" height="40" as="geometry" />
        </mxCell>
        <mxCell id="lbJgs46rWBDAF7mIoBqf-1" value="&amp;nbsp; &amp;nbsp; &amp;nbsp;담당CRC&amp;nbsp; &amp;nbsp; &amp;nbsp;" style="text;strokeColor=none;fillColor=none;html=1;fontSize=40;fontStyle=1;verticalAlign=middle;align=center;labelBackgroundColor=#ffffff;labelBorderColor=default;" vertex="1" parent="WIyWlLk6GJQsqaUBKTNV-1">
          <mxGeometry x="1420" y="-130" width="100" height="40" as="geometry" />
        </mxCell>
        <mxCell id="lbJgs46rWBDAF7mIoBqf-2" value="전원의뢰요청 기관" style="text;strokeColor=none;fillColor=none;html=1;fontSize=40;fontStyle=1;verticalAlign=middle;align=center;labelBackgroundColor=#ffffff;labelBorderColor=none;" vertex="1" parent="WIyWlLk6GJQsqaUBKTNV-1">
          <mxGeometry x="1270" y="30" width="160" height="40" as="geometry" />
        </mxCell>
        <mxCell id="SANk8vCNk3iayb4HGiDt-4" style="edgeStyle=orthogonalEdgeStyle;rounded=0;orthogonalLoop=1;jettySize=auto;html=1;entryX=0;entryY=0.5;entryDx=0;entryDy=0;" edge="1" parent="WIyWlLk6GJQsqaUBKTNV-1" source="SANk8vCNk3iayb4HGiDt-1" target="SANk8vCNk3iayb4HGiDt-144">
          <mxGeometry relative="1" as="geometry">
            <mxPoint x="320" y="210" as="targetPoint" />
          </mxGeometry>
        </mxCell>
        <mxCell id="SANk8vCNk3iayb4HGiDt-1" value="연구시작" style="ellipse;whiteSpace=wrap;html=1;fillColor=#000000;fontColor=#FFFFFF;fontStyle=1" vertex="1" parent="WIyWlLk6GJQsqaUBKTNV-1">
          <mxGeometry x="-190" y="170" width="120" height="80" as="geometry" />
        </mxCell>
        <mxCell id="SANk8vCNk3iayb4HGiDt-6" value="" style="edgeStyle=orthogonalEdgeStyle;rounded=0;orthogonalLoop=1;jettySize=auto;html=1;entryX=0;entryY=0.5;entryDx=0;entryDy=0;exitX=1;exitY=0.5;exitDx=0;exitDy=0;" edge="1" parent="WIyWlLk6GJQsqaUBKTNV-1" source="SANk8vCNk3iayb4HGiDt-144" target="SANk8vCNk3iayb4HGiDt-10">
          <mxGeometry relative="1" as="geometry">
            <mxPoint x="440" y="210" as="sourcePoint" />
            <mxPoint x="850" y="210" as="targetPoint" />
          </mxGeometry>
        </mxCell>
        <mxCell id="SANk8vCNk3iayb4HGiDt-8" value="Yes(완료)" style="edgeLabel;html=1;align=center;verticalAlign=middle;resizable=0;points=[];" vertex="1" connectable="0" parent="SANk8vCNk3iayb4HGiDt-6">
          <mxGeometry x="0.1092" y="1" relative="1" as="geometry">
            <mxPoint as="offset" />
          </mxGeometry>
        </mxCell>
        <mxCell id="SANk8vCNk3iayb4HGiDt-80" value="" style="edgeStyle=orthogonalEdgeStyle;rounded=0;orthogonalLoop=1;jettySize=auto;html=1;" edge="1" parent="WIyWlLk6GJQsqaUBKTNV-1" target="SANk8vCNk3iayb4HGiDt-79">
          <mxGeometry relative="1" as="geometry">
            <mxPoint x="380" y="240" as="sourcePoint" />
            <Array as="points">
              <mxPoint x="380" y="280" />
              <mxPoint x="143" y="280" />
            </Array>
          </mxGeometry>
        </mxCell>
        <mxCell id="SANk8vCNk3iayb4HGiDt-83" value="" style="edgeStyle=orthogonalEdgeStyle;rounded=0;orthogonalLoop=1;jettySize=auto;html=1;" edge="1" parent="WIyWlLk6GJQsqaUBKTNV-1" target="SANk8vCNk3iayb4HGiDt-82">
          <mxGeometry relative="1" as="geometry">
            <mxPoint x="380" y="240" as="sourcePoint" />
          </mxGeometry>
        </mxCell>
        <mxCell id="SANk8vCNk3iayb4HGiDt-84" value="" style="edgeStyle=orthogonalEdgeStyle;rounded=0;orthogonalLoop=1;jettySize=auto;html=1;" edge="1" parent="WIyWlLk6GJQsqaUBKTNV-1" target="SANk8vCNk3iayb4HGiDt-82">
          <mxGeometry relative="1" as="geometry">
            <mxPoint x="380" y="240" as="sourcePoint" />
          </mxGeometry>
        </mxCell>
        <mxCell id="SANk8vCNk3iayb4HGiDt-86" value="" style="edgeStyle=orthogonalEdgeStyle;rounded=0;orthogonalLoop=1;jettySize=auto;html=1;entryX=0.5;entryY=0;entryDx=0;entryDy=0;" edge="1" parent="WIyWlLk6GJQsqaUBKTNV-1" target="SANk8vCNk3iayb4HGiDt-85">
          <mxGeometry relative="1" as="geometry">
            <mxPoint x="380" y="240" as="sourcePoint" />
            <Array as="points">
              <mxPoint x="380" y="280" />
              <mxPoint x="790" y="280" />
            </Array>
          </mxGeometry>
        </mxCell>
        <mxCell id="SANk8vCNk3iayb4HGiDt-143" value="No" style="edgeLabel;html=1;align=center;verticalAlign=middle;resizable=0;points=[];" vertex="1" connectable="0" parent="SANk8vCNk3iayb4HGiDt-86">
          <mxGeometry x="-0.8944" y="-2" relative="1" as="geometry">
            <mxPoint as="offset" />
          </mxGeometry>
        </mxCell>
        <mxCell id="SANk8vCNk3iayb4HGiDt-9" value="전원의뢰 시작" style="rounded=0;whiteSpace=wrap;html=1;" vertex="1" parent="WIyWlLk6GJQsqaUBKTNV-1">
          <mxGeometry x="1895" y="260" width="120" height="60" as="geometry" />
        </mxCell>
        <mxCell id="SANk8vCNk3iayb4HGiDt-12" style="edgeStyle=orthogonalEdgeStyle;rounded=0;orthogonalLoop=1;jettySize=auto;html=1;entryX=0.5;entryY=0;entryDx=0;entryDy=0;" edge="1" parent="WIyWlLk6GJQsqaUBKTNV-1" source="SANk8vCNk3iayb4HGiDt-10" target="SANk8vCNk3iayb4HGiDt-11">
          <mxGeometry relative="1" as="geometry" />
        </mxCell>
        <mxCell id="SANk8vCNk3iayb4HGiDt-14" style="edgeStyle=orthogonalEdgeStyle;rounded=0;orthogonalLoop=1;jettySize=auto;html=1;entryX=0.5;entryY=0;entryDx=0;entryDy=0;" edge="1" parent="WIyWlLk6GJQsqaUBKTNV-1" source="SANk8vCNk3iayb4HGiDt-10" target="SANk8vCNk3iayb4HGiDt-13">
          <mxGeometry relative="1" as="geometry" />
        </mxCell>
        <mxCell id="SANk8vCNk3iayb4HGiDt-10" value="전원의뢰 시작" style="ellipse;whiteSpace=wrap;html=1;fillColor=#000000;fontColor=#FFFFFF;fontStyle=1" vertex="1" parent="WIyWlLk6GJQsqaUBKTNV-1">
          <mxGeometry x="1300" y="170" width="120" height="80" as="geometry" />
        </mxCell>
        <mxCell id="SANk8vCNk3iayb4HGiDt-35" value="" style="edgeStyle=orthogonalEdgeStyle;rounded=0;orthogonalLoop=1;jettySize=auto;html=1;" edge="1" parent="WIyWlLk6GJQsqaUBKTNV-1" source="SANk8vCNk3iayb4HGiDt-11" target="SANk8vCNk3iayb4HGiDt-34">
          <mxGeometry relative="1" as="geometry" />
        </mxCell>
        <mxCell id="SANk8vCNk3iayb4HGiDt-11" value="전원의뢰" style="rounded=0;whiteSpace=wrap;html=1;" vertex="1" parent="WIyWlLk6GJQsqaUBKTNV-1">
          <mxGeometry x="1217" y="330" width="120" height="60" as="geometry" />
        </mxCell>
        <mxCell id="SANk8vCNk3iayb4HGiDt-76" style="edgeStyle=orthogonalEdgeStyle;rounded=0;orthogonalLoop=1;jettySize=auto;html=1;entryX=1;entryY=0.5;entryDx=0;entryDy=0;" edge="1" parent="WIyWlLk6GJQsqaUBKTNV-1" source="SANk8vCNk3iayb4HGiDt-13" target="SANk8vCNk3iayb4HGiDt-75">
          <mxGeometry relative="1" as="geometry">
            <Array as="points">
              <mxPoint x="1450" y="1320" />
            </Array>
          </mxGeometry>
        </mxCell>
        <mxCell id="SANk8vCNk3iayb4HGiDt-13" value="전원문의" style="rounded=0;whiteSpace=wrap;html=1;" vertex="1" parent="WIyWlLk6GJQsqaUBKTNV-1">
          <mxGeometry x="1390" y="330" width="120" height="60" as="geometry" />
        </mxCell>
        <mxCell id="SANk8vCNk3iayb4HGiDt-33" value="" style="edgeStyle=orthogonalEdgeStyle;rounded=0;orthogonalLoop=1;jettySize=auto;html=1;" edge="1" parent="WIyWlLk6GJQsqaUBKTNV-1" source="SANk8vCNk3iayb4HGiDt-28" target="SANk8vCNk3iayb4HGiDt-32">
          <mxGeometry relative="1" as="geometry" />
        </mxCell>
        <mxCell id="SANk8vCNk3iayb4HGiDt-28" value="전원의뢰 확인" style="rounded=0;whiteSpace=wrap;html=1;" vertex="1" parent="WIyWlLk6GJQsqaUBKTNV-1">
          <mxGeometry x="131.5" y="1290" width="120" height="60" as="geometry" />
        </mxCell>
        <mxCell id="SANk8vCNk3iayb4HGiDt-66" style="edgeStyle=orthogonalEdgeStyle;rounded=0;orthogonalLoop=1;jettySize=auto;html=1;entryX=0.5;entryY=0;entryDx=0;entryDy=0;" edge="1" parent="WIyWlLk6GJQsqaUBKTNV-1" source="SANk8vCNk3iayb4HGiDt-32" target="SANk8vCNk3iayb4HGiDt-38">
          <mxGeometry relative="1" as="geometry">
            <Array as="points">
              <mxPoint x="120" y="1450" />
            </Array>
          </mxGeometry>
        </mxCell>
        <mxCell id="SANk8vCNk3iayb4HGiDt-69" value="Yes" style="edgeLabel;html=1;align=center;verticalAlign=middle;resizable=0;points=[];" vertex="1" connectable="0" parent="SANk8vCNk3iayb4HGiDt-66">
          <mxGeometry x="-0.0206" y="6" relative="1" as="geometry">
            <mxPoint y="-1" as="offset" />
          </mxGeometry>
        </mxCell>
        <mxCell id="SANk8vCNk3iayb4HGiDt-68" style="edgeStyle=orthogonalEdgeStyle;rounded=0;orthogonalLoop=1;jettySize=auto;html=1;entryX=0.5;entryY=0;entryDx=0;entryDy=0;" edge="1" parent="WIyWlLk6GJQsqaUBKTNV-1" source="SANk8vCNk3iayb4HGiDt-32" target="SANk8vCNk3iayb4HGiDt-41">
          <mxGeometry relative="1" as="geometry">
            <Array as="points">
              <mxPoint x="263" y="1450" />
            </Array>
          </mxGeometry>
        </mxCell>
        <mxCell id="SANk8vCNk3iayb4HGiDt-70" value="No" style="edgeLabel;html=1;align=center;verticalAlign=middle;resizable=0;points=[];" vertex="1" connectable="0" parent="SANk8vCNk3iayb4HGiDt-68">
          <mxGeometry x="-0.0403" y="-2" relative="1" as="geometry">
            <mxPoint as="offset" />
          </mxGeometry>
        </mxCell>
        <mxCell id="SANk8vCNk3iayb4HGiDt-32" value="적합여부" style="rhombus;whiteSpace=wrap;html=1;rounded=0;" vertex="1" parent="WIyWlLk6GJQsqaUBKTNV-1">
          <mxGeometry x="151.5" y="1410" width="80" height="80" as="geometry" />
        </mxCell>
        <mxCell id="SANk8vCNk3iayb4HGiDt-37" value="" style="edgeStyle=orthogonalEdgeStyle;rounded=0;orthogonalLoop=1;jettySize=auto;html=1;" edge="1" parent="WIyWlLk6GJQsqaUBKTNV-1" source="SANk8vCNk3iayb4HGiDt-34" target="SANk8vCNk3iayb4HGiDt-36">
          <mxGeometry relative="1" as="geometry" />
        </mxCell>
        <mxCell id="SANk8vCNk3iayb4HGiDt-34" value="사전스크리닝" style="rounded=0;whiteSpace=wrap;html=1;" vertex="1" parent="WIyWlLk6GJQsqaUBKTNV-1">
          <mxGeometry x="1217" y="470" width="120" height="60" as="geometry" />
        </mxCell>
        <mxCell id="SANk8vCNk3iayb4HGiDt-58" value="" style="edgeStyle=orthogonalEdgeStyle;rounded=0;orthogonalLoop=1;jettySize=auto;html=1;" edge="1" parent="WIyWlLk6GJQsqaUBKTNV-1" source="SANk8vCNk3iayb4HGiDt-36" target="SANk8vCNk3iayb4HGiDt-57">
          <mxGeometry relative="1" as="geometry" />
        </mxCell>
        <mxCell id="SANk8vCNk3iayb4HGiDt-60" value="Yes" style="edgeLabel;html=1;align=center;verticalAlign=middle;resizable=0;points=[];" vertex="1" connectable="0" parent="SANk8vCNk3iayb4HGiDt-58">
          <mxGeometry x="-0.2571" y="3" relative="1" as="geometry">
            <mxPoint as="offset" />
          </mxGeometry>
        </mxCell>
        <mxCell id="SANk8vCNk3iayb4HGiDt-61" style="edgeStyle=orthogonalEdgeStyle;rounded=0;orthogonalLoop=1;jettySize=auto;html=1;" edge="1" parent="WIyWlLk6GJQsqaUBKTNV-1" source="SANk8vCNk3iayb4HGiDt-36">
          <mxGeometry relative="1" as="geometry">
            <mxPoint x="1360" y="260" as="targetPoint" />
            <Array as="points">
              <mxPoint x="1150" y="640" />
              <mxPoint x="1150" y="260" />
            </Array>
          </mxGeometry>
        </mxCell>
        <mxCell id="SANk8vCNk3iayb4HGiDt-65" value="No" style="edgeLabel;html=1;align=center;verticalAlign=middle;resizable=0;points=[];" vertex="1" connectable="0" parent="SANk8vCNk3iayb4HGiDt-61">
          <mxGeometry x="-0.8941" y="1" relative="1" as="geometry">
            <mxPoint y="1" as="offset" />
          </mxGeometry>
        </mxCell>
        <mxCell id="SANk8vCNk3iayb4HGiDt-36" value="통과" style="rhombus;whiteSpace=wrap;html=1;rounded=0;" vertex="1" parent="WIyWlLk6GJQsqaUBKTNV-1">
          <mxGeometry x="1237" y="600" width="80" height="80" as="geometry" />
        </mxCell>
        <mxCell id="SANk8vCNk3iayb4HGiDt-38" value="Enrolled" style="whiteSpace=wrap;html=1;rounded=0;" vertex="1" parent="WIyWlLk6GJQsqaUBKTNV-1">
          <mxGeometry x="60" y="1540" width="120" height="60" as="geometry" />
        </mxCell>
        <mxCell id="SANk8vCNk3iayb4HGiDt-41" value="Screening Failure" style="whiteSpace=wrap;html=1;rounded=0;" vertex="1" parent="WIyWlLk6GJQsqaUBKTNV-1">
          <mxGeometry x="203" y="1540" width="120" height="60" as="geometry" />
        </mxCell>
        <mxCell id="SANk8vCNk3iayb4HGiDt-53" value="" style="endArrow=none;html=1;rounded=0;labelBorderColor=none;dashed=1;" edge="1" parent="WIyWlLk6GJQsqaUBKTNV-1">
          <mxGeometry width="50" height="50" relative="1" as="geometry">
            <mxPoint x="1140" y="1600" as="sourcePoint" />
            <mxPoint x="1140" as="targetPoint" />
          </mxGeometry>
        </mxCell>
        <mxCell id="SANk8vCNk3iayb4HGiDt-59" style="edgeStyle=orthogonalEdgeStyle;rounded=0;orthogonalLoop=1;jettySize=auto;html=1;entryX=0.5;entryY=0;entryDx=0;entryDy=0;" edge="1" parent="WIyWlLk6GJQsqaUBKTNV-1" source="SANk8vCNk3iayb4HGiDt-57" target="SANk8vCNk3iayb4HGiDt-28">
          <mxGeometry relative="1" as="geometry">
            <Array as="points">
              <mxPoint x="1277" y="1230" />
              <mxPoint x="192" y="1230" />
            </Array>
          </mxGeometry>
        </mxCell>
        <mxCell id="SANk8vCNk3iayb4HGiDt-57" value="전원의뢰&lt;br&gt;신청서 작성" style="whiteSpace=wrap;html=1;rounded=0;" vertex="1" parent="WIyWlLk6GJQsqaUBKTNV-1">
          <mxGeometry x="1217" y="770" width="120" height="60" as="geometry" />
        </mxCell>
        <mxCell id="SANk8vCNk3iayb4HGiDt-72" value="" style="endArrow=none;html=1;rounded=0;labelBorderColor=none;dashed=1;" edge="1" parent="WIyWlLk6GJQsqaUBKTNV-1">
          <mxGeometry width="50" height="50" relative="1" as="geometry">
            <mxPoint x="39.99999999999997" y="1640" as="sourcePoint" />
            <mxPoint x="39.99999999999997" y="-50" as="targetPoint" />
          </mxGeometry>
        </mxCell>
        <mxCell id="SANk8vCNk3iayb4HGiDt-78" value="" style="edgeStyle=orthogonalEdgeStyle;rounded=0;orthogonalLoop=1;jettySize=auto;html=1;" edge="1" parent="WIyWlLk6GJQsqaUBKTNV-1" source="SANk8vCNk3iayb4HGiDt-75" target="SANk8vCNk3iayb4HGiDt-77">
          <mxGeometry relative="1" as="geometry" />
        </mxCell>
        <mxCell id="SANk8vCNk3iayb4HGiDt-75" value="전원문의 확인" style="rounded=0;whiteSpace=wrap;html=1;" vertex="1" parent="WIyWlLk6GJQsqaUBKTNV-1">
          <mxGeometry x="480" y="1290" width="120" height="60" as="geometry" />
        </mxCell>
        <mxCell id="SANk8vCNk3iayb4HGiDt-77" value="답변(댓글) 작성" style="rounded=0;whiteSpace=wrap;html=1;" vertex="1" parent="WIyWlLk6GJQsqaUBKTNV-1">
          <mxGeometry x="480" y="1430" width="120" height="60" as="geometry" />
        </mxCell>
        <mxCell id="SANk8vCNk3iayb4HGiDt-145" style="edgeStyle=orthogonalEdgeStyle;rounded=0;orthogonalLoop=1;jettySize=auto;html=1;" edge="1" parent="WIyWlLk6GJQsqaUBKTNV-1" source="SANk8vCNk3iayb4HGiDt-79">
          <mxGeometry relative="1" as="geometry">
            <mxPoint x="20" y="210" as="targetPoint" />
          </mxGeometry>
        </mxCell>
        <mxCell id="SANk8vCNk3iayb4HGiDt-148" value="완료" style="edgeLabel;html=1;align=center;verticalAlign=middle;resizable=0;points=[];" vertex="1" connectable="0" parent="SANk8vCNk3iayb4HGiDt-145">
          <mxGeometry x="-0.5441" y="-2" relative="1" as="geometry">
            <mxPoint x="20" y="2" as="offset" />
          </mxGeometry>
        </mxCell>
        <mxCell id="SANk8vCNk3iayb4HGiDt-79" value="사전스크리닝" style="rounded=0;whiteSpace=wrap;html=1;" vertex="1" parent="WIyWlLk6GJQsqaUBKTNV-1">
          <mxGeometry x="83" y="350" width="120" height="60" as="geometry" />
        </mxCell>
        <mxCell id="SANk8vCNk3iayb4HGiDt-146" style="edgeStyle=orthogonalEdgeStyle;rounded=0;orthogonalLoop=1;jettySize=auto;html=1;entryX=1;entryY=0.5;entryDx=0;entryDy=0;" edge="1" parent="WIyWlLk6GJQsqaUBKTNV-1" source="SANk8vCNk3iayb4HGiDt-82" target="SANk8vCNk3iayb4HGiDt-79">
          <mxGeometry relative="1" as="geometry" />
        </mxCell>
        <mxCell id="SANk8vCNk3iayb4HGiDt-147" value="완료" style="edgeLabel;html=1;align=center;verticalAlign=middle;resizable=0;points=[];" vertex="1" connectable="0" parent="SANk8vCNk3iayb4HGiDt-146">
          <mxGeometry x="-0.2094" relative="1" as="geometry">
            <mxPoint as="offset" />
          </mxGeometry>
        </mxCell>
        <mxCell id="SANk8vCNk3iayb4HGiDt-82" value="참여연구자 등록" style="rounded=0;whiteSpace=wrap;html=1;" vertex="1" parent="WIyWlLk6GJQsqaUBKTNV-1">
          <mxGeometry x="320" y="350" width="120" height="60" as="geometry" />
        </mxCell>
        <mxCell id="SANk8vCNk3iayb4HGiDt-91" value="" style="edgeStyle=orthogonalEdgeStyle;rounded=0;orthogonalLoop=1;jettySize=auto;html=1;" edge="1" parent="WIyWlLk6GJQsqaUBKTNV-1" source="SANk8vCNk3iayb4HGiDt-85" target="SANk8vCNk3iayb4HGiDt-90">
          <mxGeometry relative="1" as="geometry" />
        </mxCell>
        <mxCell id="SANk8vCNk3iayb4HGiDt-93" style="edgeStyle=orthogonalEdgeStyle;rounded=0;orthogonalLoop=1;jettySize=auto;html=1;entryX=0.5;entryY=0;entryDx=0;entryDy=0;" edge="1" parent="WIyWlLk6GJQsqaUBKTNV-1" source="SANk8vCNk3iayb4HGiDt-85" target="SANk8vCNk3iayb4HGiDt-92">
          <mxGeometry relative="1" as="geometry" />
        </mxCell>
        <mxCell id="SANk8vCNk3iayb4HGiDt-85" value="CRC 등록" style="rounded=0;whiteSpace=wrap;html=1;" vertex="1" parent="WIyWlLk6GJQsqaUBKTNV-1">
          <mxGeometry x="730" y="350" width="120" height="60" as="geometry" />
        </mxCell>
        <mxCell id="SANk8vCNk3iayb4HGiDt-116" style="edgeStyle=orthogonalEdgeStyle;rounded=0;orthogonalLoop=1;jettySize=auto;html=1;entryX=0;entryY=0.5;entryDx=0;entryDy=0;" edge="1" parent="WIyWlLk6GJQsqaUBKTNV-1" source="SANk8vCNk3iayb4HGiDt-90" target="SANk8vCNk3iayb4HGiDt-98">
          <mxGeometry relative="1" as="geometry">
            <Array as="points">
              <mxPoint x="600" y="980" />
            </Array>
          </mxGeometry>
        </mxCell>
        <mxCell id="SANk8vCNk3iayb4HGiDt-90" value="회원정보&lt;br&gt;초대" style="rounded=0;whiteSpace=wrap;html=1;" vertex="1" parent="WIyWlLk6GJQsqaUBKTNV-1">
          <mxGeometry x="560" y="450" width="80" height="50" as="geometry" />
        </mxCell>
        <mxCell id="SANk8vCNk3iayb4HGiDt-105" value="" style="edgeStyle=orthogonalEdgeStyle;rounded=0;orthogonalLoop=1;jettySize=auto;html=1;" edge="1" parent="WIyWlLk6GJQsqaUBKTNV-1" source="SANk8vCNk3iayb4HGiDt-92" target="SANk8vCNk3iayb4HGiDt-104">
          <mxGeometry relative="1" as="geometry" />
        </mxCell>
        <mxCell id="SANk8vCNk3iayb4HGiDt-92" value="개인정보&lt;br&gt;초대" style="rounded=0;whiteSpace=wrap;html=1;" vertex="1" parent="WIyWlLk6GJQsqaUBKTNV-1">
          <mxGeometry x="930" y="450" width="80" height="50" as="geometry" />
        </mxCell>
        <mxCell id="SANk8vCNk3iayb4HGiDt-94" value="이메일, 성함, 연락처&amp;nbsp;" style="text;html=1;strokeColor=none;fillColor=none;align=center;verticalAlign=middle;whiteSpace=wrap;rounded=0;" vertex="1" parent="WIyWlLk6GJQsqaUBKTNV-1">
          <mxGeometry x="990" y="410" width="120" height="30" as="geometry" />
        </mxCell>
        <mxCell id="SANk8vCNk3iayb4HGiDt-140" style="edgeStyle=orthogonalEdgeStyle;rounded=0;orthogonalLoop=1;jettySize=auto;html=1;exitX=0.5;exitY=0;exitDx=0;exitDy=0;" edge="1" parent="WIyWlLk6GJQsqaUBKTNV-1" source="SANk8vCNk3iayb4HGiDt-98">
          <mxGeometry relative="1" as="geometry">
            <mxPoint x="790" y="310" as="targetPoint" />
            <Array as="points">
              <mxPoint x="520" y="940" />
              <mxPoint x="520" y="310" />
            </Array>
          </mxGeometry>
        </mxCell>
        <mxCell id="SANk8vCNk3iayb4HGiDt-141" value="No" style="edgeLabel;html=1;align=center;verticalAlign=middle;resizable=0;points=[];" vertex="1" connectable="0" parent="SANk8vCNk3iayb4HGiDt-140">
          <mxGeometry x="-0.9106" y="-1" relative="1" as="geometry">
            <mxPoint x="1" as="offset" />
          </mxGeometry>
        </mxCell>
        <mxCell id="SANk8vCNk3iayb4HGiDt-149" style="edgeStyle=orthogonalEdgeStyle;rounded=0;orthogonalLoop=1;jettySize=auto;html=1;exitX=0.5;exitY=1;exitDx=0;exitDy=0;" edge="1" parent="WIyWlLk6GJQsqaUBKTNV-1" source="SANk8vCNk3iayb4HGiDt-98">
          <mxGeometry relative="1" as="geometry">
            <mxPoint x="20" y="365" as="targetPoint" />
            <Array as="points">
              <mxPoint x="790" y="1060" />
              <mxPoint x="20" y="1060" />
            </Array>
          </mxGeometry>
        </mxCell>
        <mxCell id="SANk8vCNk3iayb4HGiDt-150" value="Yes" style="edgeLabel;html=1;align=center;verticalAlign=middle;resizable=0;points=[];" vertex="1" connectable="0" parent="SANk8vCNk3iayb4HGiDt-149">
          <mxGeometry x="-0.4421" y="2" relative="1" as="geometry">
            <mxPoint x="238" y="-2" as="offset" />
          </mxGeometry>
        </mxCell>
        <mxCell id="SANk8vCNk3iayb4HGiDt-98" value="승락" style="rhombus;whiteSpace=wrap;html=1;rounded=0;fillColor=#dae8fc;strokeColor=#6c8ebf;" vertex="1" parent="WIyWlLk6GJQsqaUBKTNV-1">
          <mxGeometry x="750" y="940" width="80" height="80" as="geometry" />
        </mxCell>
        <mxCell id="SANk8vCNk3iayb4HGiDt-113" value="" style="edgeStyle=orthogonalEdgeStyle;rounded=0;orthogonalLoop=1;jettySize=auto;html=1;" edge="1" parent="WIyWlLk6GJQsqaUBKTNV-1" source="SANk8vCNk3iayb4HGiDt-104" target="SANk8vCNk3iayb4HGiDt-112">
          <mxGeometry relative="1" as="geometry" />
        </mxCell>
        <mxCell id="SANk8vCNk3iayb4HGiDt-120" value="No(비회원)" style="edgeLabel;html=1;align=center;verticalAlign=middle;resizable=0;points=[];" vertex="1" connectable="0" parent="SANk8vCNk3iayb4HGiDt-113">
          <mxGeometry x="-0.736" y="1" relative="1" as="geometry">
            <mxPoint x="36" y="31" as="offset" />
          </mxGeometry>
        </mxCell>
        <mxCell id="SANk8vCNk3iayb4HGiDt-122" value="" style="edgeStyle=orthogonalEdgeStyle;rounded=0;orthogonalLoop=1;jettySize=auto;html=1;" edge="1" parent="WIyWlLk6GJQsqaUBKTNV-1" source="SANk8vCNk3iayb4HGiDt-104">
          <mxGeometry relative="1" as="geometry">
            <mxPoint x="880" y="680" as="targetPoint" />
          </mxGeometry>
        </mxCell>
        <mxCell id="SANk8vCNk3iayb4HGiDt-123" value="Yes(회원)" style="edgeLabel;html=1;align=center;verticalAlign=middle;resizable=0;points=[];" vertex="1" connectable="0" parent="SANk8vCNk3iayb4HGiDt-122">
          <mxGeometry x="0.2611" y="2" relative="1" as="geometry">
            <mxPoint as="offset" />
          </mxGeometry>
        </mxCell>
        <mxCell id="SANk8vCNk3iayb4HGiDt-104" value="회원가입&lt;br&gt;유무" style="rhombus;whiteSpace=wrap;html=1;rounded=0;" vertex="1" parent="WIyWlLk6GJQsqaUBKTNV-1">
          <mxGeometry x="930" y="550" width="80" height="80" as="geometry" />
        </mxCell>
        <mxCell id="SANk8vCNk3iayb4HGiDt-119" style="edgeStyle=orthogonalEdgeStyle;rounded=0;orthogonalLoop=1;jettySize=auto;html=1;entryX=1;entryY=0.5;entryDx=0;entryDy=0;" edge="1" parent="WIyWlLk6GJQsqaUBKTNV-1" source="SANk8vCNk3iayb4HGiDt-112" target="SANk8vCNk3iayb4HGiDt-98">
          <mxGeometry relative="1" as="geometry">
            <Array as="points">
              <mxPoint x="1065" y="980" />
            </Array>
          </mxGeometry>
        </mxCell>
        <mxCell id="SANk8vCNk3iayb4HGiDt-112" value="회원가입&lt;br&gt;절차 완료" style="whiteSpace=wrap;html=1;rounded=0;" vertex="1" parent="WIyWlLk6GJQsqaUBKTNV-1">
          <mxGeometry x="1020" y="680" width="90" height="60" as="geometry" />
        </mxCell>
        <mxCell id="SANk8vCNk3iayb4HGiDt-125" style="edgeStyle=orthogonalEdgeStyle;rounded=0;orthogonalLoop=1;jettySize=auto;html=1;" edge="1" parent="WIyWlLk6GJQsqaUBKTNV-1" source="SANk8vCNk3iayb4HGiDt-124">
          <mxGeometry relative="1" as="geometry">
            <mxPoint x="880" y="980" as="targetPoint" />
          </mxGeometry>
        </mxCell>
        <mxCell id="SANk8vCNk3iayb4HGiDt-126" value="Yes" style="edgeLabel;html=1;align=center;verticalAlign=middle;resizable=0;points=[];" vertex="1" connectable="0" parent="SANk8vCNk3iayb4HGiDt-125">
          <mxGeometry x="-0.5918" y="1" relative="1" as="geometry">
            <mxPoint as="offset" />
          </mxGeometry>
        </mxCell>
        <mxCell id="SANk8vCNk3iayb4HGiDt-129" style="edgeStyle=orthogonalEdgeStyle;rounded=0;orthogonalLoop=1;jettySize=auto;html=1;" edge="1" parent="WIyWlLk6GJQsqaUBKTNV-1" source="SANk8vCNk3iayb4HGiDt-124">
          <mxGeometry relative="1" as="geometry">
            <mxPoint x="970" y="420" as="targetPoint" />
            <Array as="points">
              <mxPoint x="760" y="720" />
              <mxPoint x="760" y="420" />
              <mxPoint x="970" y="420" />
            </Array>
          </mxGeometry>
        </mxCell>
        <mxCell id="SANk8vCNk3iayb4HGiDt-130" value="No" style="edgeLabel;html=1;align=center;verticalAlign=middle;resizable=0;points=[];" vertex="1" connectable="0" parent="SANk8vCNk3iayb4HGiDt-129">
          <mxGeometry x="-0.8874" y="1" relative="1" as="geometry">
            <mxPoint as="offset" />
          </mxGeometry>
        </mxCell>
        <mxCell id="SANk8vCNk3iayb4HGiDt-124" value="PI입력정보&lt;br&gt;일치" style="rhombus;whiteSpace=wrap;html=1;" vertex="1" parent="WIyWlLk6GJQsqaUBKTNV-1">
          <mxGeometry x="840" y="680" width="80" height="80" as="geometry" />
        </mxCell>
        <mxCell id="SANk8vCNk3iayb4HGiDt-138" style="edgeStyle=orthogonalEdgeStyle;rounded=0;orthogonalLoop=1;jettySize=auto;html=1;exitX=0.5;exitY=1;exitDx=0;exitDy=0;" edge="1" parent="WIyWlLk6GJQsqaUBKTNV-1" source="SANk8vCNk3iayb4HGiDt-135" target="SANk8vCNk3iayb4HGiDt-135">
          <mxGeometry relative="1" as="geometry" />
        </mxCell>
        <mxCell id="SANk8vCNk3iayb4HGiDt-139" value="CRC" style="text;html=1;strokeColor=none;fillColor=none;align=center;verticalAlign=middle;whiteSpace=wrap;rounded=0;fontSize=40;fontStyle=1" vertex="1" parent="WIyWlLk6GJQsqaUBKTNV-1">
          <mxGeometry x="790" y="550" width="60" height="30" as="geometry" />
        </mxCell>
        <mxCell id="SANk8vCNk3iayb4HGiDt-144" value="초기설정&lt;br&gt;완료" style="rhombus;whiteSpace=wrap;html=1;" vertex="1" parent="WIyWlLk6GJQsqaUBKTNV-1">
          <mxGeometry x="340" y="170" width="80" height="80" as="geometry" />
        </mxCell>
        <mxCell id="SANk8vCNk3iayb4HGiDt-151" value="" style="endArrow=classic;html=1;rounded=0;" edge="1" parent="WIyWlLk6GJQsqaUBKTNV-1">
          <mxGeometry width="50" height="50" relative="1" as="geometry">
            <mxPoint x="480" y="1060" as="sourcePoint" />
            <mxPoint x="240" y="1060" as="targetPoint" />
          </mxGeometry>
        </mxCell>
      </root>
    </mxGraphModel>
  </diagram>
  <diagram id="Mi3yhiZZiw8LaxuEEV1I" name="사용자페이지-메뉴">
    <mxGraphModel dx="1434" dy="764" grid="1" gridSize="10" guides="1" tooltips="1" connect="1" arrows="1" fold="1" page="1" pageScale="1" pageWidth="827" pageHeight="1169" math="0" shadow="0">
      <root>
        <mxCell id="0" />
        <mxCell id="1" parent="0" />
      </root>
    </mxGraphModel>
  </diagram>
</mxfile>
